<?xml version="1.0" encoding="UTF-8" standalone="no"?>
<!-- Created with Inkscape (http://www.inkscape.org/) -->

<svg
   xmlns:dc="http://purl.org/dc/elements/1.1/"
   xmlns:cc="http://creativecommons.org/ns#"
   xmlns:rdf="http://www.w3.org/1999/02/22-rdf-syntax-ns#"
   xmlns:svg="http://www.w3.org/2000/svg"
   xmlns="http://www.w3.org/2000/svg"
   xmlns:sodipodi="http://sodipodi.sourceforge.net/DTD/sodipodi-0.dtd"
   xmlns:inkscape="http://www.inkscape.org/namespaces/inkscape"
   width="250"
   height="270"
   viewBox="0 0 250.00001 270"
   id="svg3445"
   version="1.1"
   inkscape:version="0.91 r13725"
   sodipodi:docname="ezgo14_splash.svg">
  <defs
     id="defs3447" />
  <sodipodi:namedview
     id="base"
     pagecolor="#ffffff"
     bordercolor="#666666"
     borderopacity="1.0"
     inkscape:pageopacity="0.0"
     inkscape:pageshadow="2"
     inkscape:zoom="1.7155556"
     inkscape:cx="33.823529"
     inkscape:cy="133.82353"
     inkscape:document-units="px"
     inkscape:current-layer="layer1"
     showgrid="false"
     fit-margin-top="0"
     fit-margin-left="0"
     fit-margin-right="0"
     fit-margin-bottom="0"
     inkscape:window-width="1920"
     inkscape:window-height="1005"
     inkscape:window-x="0"
     inkscape:window-y="0"
     inkscape:window-maximized="1"
     units="px" />
  <metadata
     id="metadata3450">
    <rdf:RDF>
      <cc:Work
         rdf:about="">
        <dc:format>image/svg+xml</dc:format>
        <dc:type
           rdf:resource="http://purl.org/dc/dcmitype/StillImage" />
        <dc:title></dc:title>
      </cc:Work>
    </rdf:RDF>
  </metadata>
  <g
     inkscape:groupmode="layer"
     id="layer2"
     inkscape:label="Layer 2"
     style="display:none"
     transform="translate(3.31219,20.653959)"
     sodipodi:insensitive="true">
    <rect
       style="fill:#999999;stroke-width:9.57199955;stroke-miterlimit:4;stroke-dasharray:none"
       id="rect3398"
       width="370.53503"
       height="293.87262"
       x="-52.165695"
       y="-21.978804" />
  </g>
  <g
     inkscape:label="Layer 1"
     inkscape:groupmode="layer"
     id="layer1"
     transform="translate(-142.36536,-519.50126)">
    <g
       id="g4192"
       transform="translate(286.78758,6.9948195)"
       style="fill:#ffffff">
      <path
         style="fill:#ffffff"
         inkscape:connector-curvature="0"
         id="path2373"
         d="m 78.100247,645.87923 c 0,-10.02282 -8.820094,-18.34179 -20.145905,-19.49441 C 56.60126,618.567 48.733333,612.5533 39.261751,612.5533 l -5.061532,0 0,-4.30982 c 0,-8.92033 -8.469296,-16.18689 -18.893053,-16.18689 l -39.890901,0 c -9.421462,0 -17.239277,5.96359 -18.642479,13.68119 l -9.271119,0 c -7.216446,0 -13.230144,4.41004 -14.633345,10.27339 l -7.316677,0 c -7.467011,0 -14.031976,4.25971 -16.186881,10.27342 l -1.804109,0 c -12.628775,0 -22.902185,8.82009 -22.902185,19.64476 0,10.82467 10.27341,19.64476 22.902185,19.64476 l 49.412594,0 c 1.603655,0 2.956737,-1.1025 2.956737,-2.5057 0,-1.4032 -1.30297,-2.50571 -2.956737,-2.50571 l -49.412594,0 c -9.371355,0 -16.988715,-6.56497 -16.988715,-14.58324 0,-8.01827 7.61736,-14.58322 16.988715,-14.58322 l 19.94545,0 c 1.603656,0 2.956737,-1.10252 2.956737,-2.50572 0,-1.40319 -1.30297,-2.5057 -2.956737,-2.5057 l -11.87707,0 c 1.85423,-3.10708 5.61279,-5.21188 9.872499,-5.21188 l 9.972729,0 c 0,0 0,0 0,0 l 7.968149,0 c 1.603656,0 2.956738,-1.1025 2.956738,-2.50572 0,-1.40319 -1.302962,-2.5057 -2.956738,-2.5057 l -4.560385,0 c 1.20274,-3.05696 4.610505,-5.21188 8.519408,-5.21188 l 11.977293,0 c 4.961309,0 9.020554,3.45788 9.020554,7.76771 0,1.4032 1.302971,2.5057 2.956738,2.5057 1.603656,0 2.956737,-1.1025 2.956737,-2.5057 0,-6.11394 -5.01142,-11.22559 -11.726719,-12.47844 1.20274,-5.11165 6.464725,-8.97043 12.779116,-8.97043 l 39.890901,0 c 7.166326,0 13.029689,5.01142 13.029689,11.17546 l 0,4.30981 -13.029689,0 c -1.603656,0 -2.956738,1.10252 -2.956738,2.50572 0,1.4032 1.302971,2.5057 2.956738,2.5057 l 15.936306,0 7.968158,0 c 6.164049,0 11.325812,3.70846 12.678893,8.66977 l -4.710735,0 c -1.603656,0 -2.956737,1.1025 -2.956737,2.5057 0,1.40319 1.30297,2.50571 2.956737,2.50571 l 7.968158,0 c 0,0 0,0 0,0 0,0 0,0 0,0 9.371351,0 16.988712,6.56496 16.988712,14.58322 0,8.06839 -7.617361,14.58324 -16.988712,14.58324 l -5.061532,0 0,-0.90205 c 0,-5.16177 -4.911198,-9.37135 -10.924895,-9.37135 l -15.936315,0 c -6.013697,0 -10.924887,4.20958 -10.924887,9.37135 l 0,0.90205 -1.052406,0 c 0,0 0,0 0,0 l -3.959023,0 c 0,0 0,0 0,0 -7.16632567,0 -13.0296896,-5.01142 -13.0296896,-11.17547 0,-1.40319 -1.3029706,-2.50569 -2.9567375,-2.50569 -1.6036559,0 -2.9567369,1.1025 -2.9567369,2.50569 0,4.30983 2.0045708,8.26885 5.2118732,11.17547 l -4.2596992,0 -11.977292,0 -7.517131,0 c -1.603656,0 -2.956737,1.10251 -2.956737,2.50572 0,1.40319 1.30297,2.5057 2.956737,2.5057 l 4.560393,0 0,46.30552 -26.961433,0 c -4.96131,0 -9.020555,-3.45788 -9.020555,-7.76771 l 0,-7.76769 16.988713,0 c 6.013697,0 10.924887,-4.20959 10.924887,-9.37135 0,-5.16177 -4.91119,-9.37136 -10.924887,-9.37136 l -1.052397,0 0,-0.90206 c 0,-5.16176 -4.911198,-9.37135 -10.924895,-9.37135 l -15.936316,0 c -6.013706,0 -10.924896,4.20959 -10.924896,9.37135 l 0,0.90206 -5.061531,0 c -6.013706,0 -10.924894,4.20959 -10.924894,9.37136 0,5.16176 4.911188,9.37135 10.924894,9.37135 l 20.997847,0 0,7.76769 c 0,7.06611 6.665188,12.77913 14.88391,12.77913 l 26.961442,0 0,29.16646 -11.025126,0 c -7.216446,0 -13.230143,4.41005 -14.633345,10.27341 l -24.305381,0 c -1.603655,0 -2.956737,1.10251 -2.956737,2.50571 0,1.4032 1.302962,2.50571 2.956737,2.50571 l 117.668121,0 c 1.603655,0 2.956737,-1.10251 2.956737,-2.50571 0,-1.4032 -1.302971,-2.50571 -2.956737,-2.50571 l -24.305381,0 C 16.309451,750.51768 10.245626,746.10763 3.0291888,746.10763 l -11.0251271,0 0,-53.12105 26.9614433,0 c 8.218722,0 14.883909,-5.71301 14.883909,-12.77911 l 0,-0.90206 20.997847,0 c 6.013707,0 10.924895,-4.2096 10.924895,-9.37136 0,-2.15491 -0.851943,-4.15947 -2.305256,-5.76313 8.71987,-3.00685 14.633347,-10.07296 14.633347,-18.29169 z m -171.540878,41.04354 c 0,-2.40549 2.255137,-4.30983 5.061532,-4.30983 l 7.968158,0 c 0,0 0,0 0,0 2.756275,0 5.061531,1.95445 5.061531,4.30983 0,1.4032 1.302971,2.5057 2.956747,2.5057 1.653767,0 2.956728,-1.1025 2.956728,-2.5057 0,-4.30983 -3.357644,-7.91804 -7.968157,-9.02056 l 0,-1.25286 c 0,-2.40548 2.255136,-4.30982 5.06154,-4.30982 l 15.936306,0 c 2.756284,0 5.06154,1.95446 5.06154,4.30982 l 0,0.90206 -5.06154,0 c -1.603646,0 -2.956737,1.10251 -2.956737,2.50571 0,1.4032 1.30297,2.50571 2.956737,2.50571 l 7.968158,0 c 0,0 0,0 0,0 l 3.959024,0 c 2.756283,0 5.061531,1.95445 5.061531,4.30983 0,2.35536 -2.255137,4.30981 -5.061531,4.30981 l -43.900035,0 c -2.806395,0.10022 -5.061532,-1.85423 -5.061532,-4.2597 z m 105.340032,69.35804 -56.979835,0 c 1.202739,-3.05697 4.610504,-5.21188 8.519407,-5.21188 l 13.981864,0 11.977293,0 13.9818548,0 c 3.9089033,0 7.2665572,2.15491 8.5194162,5.21188 z m -31.571946,-10.2734 0,-80.48341 6.113937,0 0,80.48341 -6.113937,0 z m 48.009401,-65.90017 c 0,4.2597 -4.059247,7.7677 -9.020556,7.7677 l -26.9614333,0 0,-22.35094 9.3212403,0 c -0.8018323,1.30297 -1.25285966,2.75628 -1.25285966,4.30982 0,5.16176 4.91118916,9.37136 10.92489566,9.37136 l 16.988713,0 0,0.90206 z m 31.922742,-10.27342 c 0,2.40548 -2.255145,4.30982 -5.061541,4.30982 l -23.904464,0 c 0,0 0,0 -0.05008,0 -0.05008,0 0,0 -0.05008,0 l -19.89533,0 c -2.7562842,0 -5.0615407,-1.95445 -5.0615407,-4.30982 0,-2.40548 2.2551453,-4.30982 5.0114297,-4.30982 l 4.009134,0 c 0,0 0,0 0,0 0,0 0,0 0,0 l 7.968158,0 c 1.603647,0 2.956737,-1.1025 2.956737,-2.50571 0,-1.40319 -1.30297,-2.50571 -2.956737,-2.50571 l -5.061541,0 0,-0.90205 c 0,-2.40549 2.255146,-4.30982 5.061541,-4.30982 l 15.936307,0 c 2.756283,0 5.061532,1.95445 5.061532,4.30982 l 0,1.25286 c -4.610505,1.1025 -7.96815,4.71072 -7.96815,9.02055 0,1.4032 1.302962,2.5057 2.956738,2.5057 1.653767,0 2.956737,-1.1025 2.956737,-2.5057 0,-2.40549 2.255136,-4.30983 5.061532,-4.30983 0,0 0,0 0,0 l 7.968149,0 c 2.806395,-0.0501 5.06154,1.85423 5.06154,4.25971 z"
         class="st92" />
      <path
         style="fill:#ffffff"
         inkscape:connector-curvature="0"
         id="path2459"
         d="m -21.426534,756.93229 c 0,-1.25285 -1.302971,-2.25514 -2.956738,-2.25514 l -9.872498,0 c -1.653767,0 -2.956737,1.00229 -2.956737,2.25514 l 15.785973,0 z"
         class="st92" />
      <path
         style="fill:#ffffff"
         inkscape:connector-curvature="0"
         id="path2461"
         d="m -64.77531,679.00473 -7.4169,0 c -0.851943,0 -1.503434,-0.7016 -1.503434,-1.50343 l 0,-0.90206 c 0,-0.85194 0.701602,-1.50343 1.503434,-1.50343 l 7.4169,0 c 0.851943,0 1.503424,0.7016 1.503424,1.50343 l 0,0.90206 c 0,0.80183 -0.701602,1.50343 -1.503424,1.50343 z"
         class="st92" />
      <path
         style="fill:#ffffff"
         inkscape:connector-curvature="0"
         id="path2463"
         d="m 26.582858,670.73588 -7.066095,0 c -0.701601,0 -1.302971,-0.55126 -1.302971,-1.30297 l 0,-0.55126 c 0,-0.7016 0.551259,-1.30296 1.302971,-1.30296 l 7.066095,0 c 0.7016,0 1.30297,0.55125 1.30297,1.30296 l 0,0.55126 c -0.05007,0.70159 -0.60137,1.30297 -1.30297,1.30297 z"
         class="st92" />
      <path
         style="fill:#ffffff"
         inkscape:connector-curvature="0"
         id="path2465"
         d="m -78.005463,641.76988 c 2.355368,0 4.259708,-1.45331 4.259708,-3.20731 0,-1.754 -1.90434,-3.20731 -4.259708,-3.20731 l -13.881633,0 c -2.104794,1.754 -3.558106,3.95901 -4.059245,6.41462 l 17.940878,0 z"
         class="st92" />
    </g>
  </g>
</svg>
