<?xml version="1.0" encoding="UTF-8" standalone="no"?>
<!-- Created with Inkscape (http://www.inkscape.org/) -->

<svg
   xmlns:dc="http://purl.org/dc/elements/1.1/"
   xmlns:cc="http://creativecommons.org/ns#"
   xmlns:rdf="http://www.w3.org/1999/02/22-rdf-syntax-ns#"
   xmlns:svg="http://www.w3.org/2000/svg"
   xmlns="http://www.w3.org/2000/svg"
   xmlns:sodipodi="http://sodipodi.sourceforge.net/DTD/sodipodi-0.dtd"
   xmlns:inkscape="http://www.inkscape.org/namespaces/inkscape"
   width="250"
   height="250"
   viewBox="0 0 250.00001 250"
   id="svg3445"
   version="1.1"
   inkscape:version="0.91 r13725"
   sodipodi:docname="compass_5.svg">
  <defs
     id="defs3447" />
  <sodipodi:namedview
     id="base"
     pagecolor="#ffffff"
     bordercolor="#666666"
     borderopacity="1.0"
     inkscape:pageopacity="0.0"
     inkscape:pageshadow="2"
     inkscape:zoom="1.0332948"
     inkscape:cx="168.71235"
     inkscape:cy="149.81752"
     inkscape:document-units="px"
     inkscape:current-layer="layer1"
     showgrid="false"
     fit-margin-top="0"
     fit-margin-left="0"
     fit-margin-right="0"
     fit-margin-bottom="0"
     inkscape:window-width="1024"
     inkscape:window-height="704"
     inkscape:window-x="0"
     inkscape:window-y="0"
     inkscape:window-maximized="1"
     units="px" />
  <metadata
     id="metadata3450">
    <rdf:RDF>
      <cc:Work
         rdf:about="">
        <dc:format>image/svg+xml</dc:format>
        <dc:type
           rdf:resource="http://purl.org/dc/dcmitype/StillImage" />
        <dc:title />
      </cc:Work>
    </rdf:RDF>
  </metadata>
  <g
     inkscape:groupmode="layer"
     id="layer2"
     inkscape:label="Layer 2"
     style="display:none"
     transform="translate(3.31219,0.65395639)"
     sodipodi:insensitive="true">
    <rect
       style="fill:#999999;stroke-width:9.57199955;stroke-miterlimit:4;stroke-dasharray:none"
       id="rect3398"
       width="370.53503"
       height="293.87262"
       x="-52.165695"
       y="-21.978804" />
  </g>
  <g
     inkscape:label="Layer 1"
     inkscape:groupmode="layer"
     id="layer1"
     transform="translate(-142.36536,-539.50125)">
    <polygon
       id="polygon35"
       points="87.296,155.818 235.883,218.454 333.246,89.917 270.611,238.504 399.148,335.866 399.148,335.866 250.561,273.231 153.198,401.769 215.833,253.182 "
       stroke-miterlimit="10"
       style="fill:#01b4ed;stroke:none;stroke-width:2.09050012;stroke-linejoin:round;stroke-miterlimit:10;fill-opacity:1"
       transform="matrix(0.67435721,0,0,0.67431467,103.7866,499.93654)" />
    <path
       id="path7"
       d="m 317.35785,593.3314 -223.891866,-8e-5 223.891866,8e-5 0,0 z m 28.05629,-28.05708 -7.9e-4,-223.89136 7.9e-4,223.89136 0,0 z m 28.05758,28.05715 223.89136,-7.8e-4 -223.89136,7.8e-4 0,0 z m -28.05716,28.05759 2.9e-4,223.89049 -2.9e-4,-223.89049 0,0 z"
       inkscape:connector-curvature="0"
       style="clip-rule:evenodd;fill:#fffcfc;fill-rule:evenodd" />
    <polygon
       id="polygon31"
       points="130.844,275.954 226.17,235.998 213.11,133.465 253.066,228.791 355.6,215.731 355.6,215.731 260.273,255.688 273.334,358.22 233.377,262.894 "
       style="clip-rule:evenodd;fill:#01b4ed;fill-rule:evenodd;fill-opacity:1"
       transform="matrix(0.67435721,0,0,0.67431467,103.7866,499.93654)" />
    <path
       id="path49"
       d="m 281.51144,662.0391 c 2.02712,7.56581 -2.46816,15.35077 -10.03377,17.37776 -7.56628,2.027 -15.35173,-2.46798 -17.37887,-10.03312 -2.02711,-7.56582 2.46815,-15.35147 10.03377,-17.37777 7.5663,-2.027 15.35175,2.468 17.37887,10.03313 l 0,0 z"
       stroke-miterlimit="10"
       inkscape:connector-curvature="0"
       style="fill:none;stroke:#000000;stroke-width:1.98652625;stroke-linejoin:round;stroke-miterlimit:10" />
    <path
       id="path51"
       d="m 331.98502,539.50126 3.92472,2.26551 2.72991,10.95936 2.43169,-4.21139 c 0.29614,-0.51284 0.46829,-1.01236 0.51541,-1.49806 0.0472,-0.48571 -0.0369,-0.92425 -0.25204,-1.3162 -0.11328,-0.21412 -0.24545,-0.39654 -0.39812,-0.54664 -0.15214,-0.1502 -0.38219,-0.33002 -0.6917,-0.53898 l 0.15,-0.25882 4.84135,2.7953 -0.15002,0.25879 -0.0978,-0.0564 c -0.7035,-0.40674 -1.37006,-0.49233 -1.99617,-0.2572 -0.62767,0.23465 -1.18666,0.77926 -1.67905,1.63281 l -4.03581,6.98881 -0.23005,-0.13322 -3.43336,-13.53841 -3.35241,5.80626 c -0.32538,0.56458 -0.5185,1.0549 -0.57847,1.47092 -0.06,0.41602 0.006,0.80745 0.19931,1.17375 0.16087,0.29206 0.4063,0.56154 0.73678,0.80798 0.17727,0.14553 0.44318,0.33045 0.79976,0.55492 l -0.15,0.2588 -5.09961,-2.94441 0.1491,-0.25871 c 0.53851,0.27359 1.01757,0.42676 1.43719,0.46057 0.41811,0.0333 0.79573,-0.0583 1.12874,-0.27615 0.33408,-0.21775 0.63329,-0.55486 0.89664,-1.01187 l 3.19155,-5.52653 c 0.19724,-0.34072 0.28844,-0.67322 0.27307,-0.99853 -0.0138,-0.32538 -0.12812,-0.63582 -0.34324,-0.93096 -0.21519,-0.29509 -0.52826,-0.56153 -0.93867,-0.79821 l -0.12602,-0.0727 0.14785,-0.26007 0,0 z"
       inkscape:connector-curvature="0"
       style="fill:#0076a8;fill-opacity:1" />
    <path
       id="path53"
       d="m 206.45204,780.57044 0.24492,0.14088 -1.93469,3.35119 -0.24492,-0.14142 c 0.17216,-0.97598 0.20238,-1.79879 0.0902,-2.46584 -0.0876,-0.47339 -0.26591,-0.94833 -0.53544,-1.42376 -0.26947,-0.47545 -0.61739,-0.92888 -1.04417,-1.35822 -0.42681,-0.42934 -0.8987,-0.79412 -1.4167,-1.09281 -0.38683,-0.22389 -0.76342,-0.3694 -1.12823,-0.437 -0.36481,-0.0681 -0.71323,-0.0574 -1.0442,0.0317 -0.23519,0.0631 -0.4514,0.16194 -0.64762,0.29765 -0.19622,0.13529 -0.34432,0.28898 -0.44373,0.46163 -0.18853,0.32636 -0.22544,0.68142 -0.11116,1.06463 0.0492,0.18341 0.15171,0.39192 0.3064,0.62452 0.15478,0.23259 0.37402,0.49901 0.65786,0.79976 0.28387,0.30073 0.69017,0.70292 1.21945,1.20757 0.13832,0.14803 0.23464,0.24494 0.29001,0.28845 l 0.29458,0.2823 0.46471,0.45496 c 0.78597,0.77106 1.33881,1.36999 1.65854,1.79677 0.31919,0.42677 0.54208,0.87608 0.66812,1.34692 0.10652,0.35351 0.13933,0.71472 0.0979,1.08206 -0.0415,0.36836 -0.16037,0.72187 -0.35711,1.06257 -0.19367,0.33558 -0.46066,0.63068 -0.80083,0.88583 -0.34023,0.25514 -0.71682,0.43343 -1.13079,0.53641 -0.54982,0.15561 -1.12925,0.17573 -1.73743,0.0604 -0.6087,-0.11529 -1.23685,-0.35914 -1.88498,-0.73417 -0.45242,-0.26128 -0.85205,-0.55231 -1.19793,-0.87302 -0.34634,-0.32124 -0.73627,-0.769 -1.16972,-1.34231 -0.28693,-0.36479 -0.51289,-0.63016 -0.67787,-0.79719 -0.165,-0.16697 -0.33352,-0.30028 -0.50626,-0.39955 -0.33096,-0.1911 -0.66248,-0.26639 -0.99449,-0.22443 -0.33203,0.0414 -0.62817,0.20186 -0.88845,0.48058 l -0.24491,-0.14139 2.60947,-4.51881 0.24492,0.14091 c -0.36532,0.85917 -0.46113,1.77369 -0.28795,2.74407 0.11017,0.5738 0.32839,1.17377 0.65377,1.79982 0.32537,0.62659 0.71784,1.19372 1.17744,1.70095 0.45908,0.50772 0.94326,0.90836 1.45152,1.20194 0.45242,0.26128 0.9095,0.42568 1.37109,0.49335 0.46164,0.0677 0.87408,0.0292 1.23739,-0.11577 0.36326,-0.14496 0.64198,-0.38526 0.83616,-0.72085 0.20444,-0.35401 0.24645,-0.75621 0.12657,-1.205 -0.0581,-0.2013 -0.15989,-0.41551 -0.30539,-0.64249 -0.14601,-0.22695 -0.35096,-0.49183 -0.61482,-0.7936 -0.26388,-0.30177 -0.63894,-0.69472 -1.12312,-1.18043 l -0.59076,-0.59275 c -0.92175,-0.92375 -1.54529,-1.58874 -1.87065,-1.994 -0.37145,-0.4447 -0.64148,-0.83049 -0.81005,-1.15839 -0.16857,-0.32737 -0.27413,-0.68038 -0.31668,-1.059 -0.0738,-0.5405 0.0189,-1.03439 0.27719,-1.48216 0.31255,-0.54102 0.75422,-0.93399 1.32499,-1.17992 0.57078,-0.24591 1.21588,-0.32269 1.93368,-0.23107 0.71834,0.0912 1.43001,0.34021 2.13399,0.747 1.06316,0.61377 1.99567,1.54673 2.79649,2.79888 0.28542,0.43188 0.50009,0.69011 0.64456,0.77363 0.36481,0.21006 0.78087,0.0927 1.24915,-0.352 l 0,0 0,0 z"
       inkscape:connector-curvature="0"
       style="fill:#01b4ed;fill-opacity:1" />
    <path
       id="path55"
       d="m 143.10322,586.46025 5.08625,2.93621 -0.13519,0.26695 c -0.41801,-0.23441 -0.75471,-0.35454 -1.00987,-0.35915 -0.25516,-0.005 -0.44935,0.10756 -0.58104,0.33609 -0.1291,0.2239 -0.22343,0.48361 -0.28179,0.77926 l -1.23634,6.90678 4.85775,-3.80922 c 0.11116,-0.56971 0.1701,-1.00263 0.17574,-1.29774 0.006,-0.29511 -0.0344,-0.58866 -0.12091,-0.88121 -0.0652,-0.27421 -0.16812,-0.49799 -0.30744,-0.67167 -0.13888,-0.17368 -0.33713,-0.33456 -0.59331,-0.48261 l 0.1496,-0.25872 5.30301,3.06171 -0.14962,0.25871 -0.25875,-0.14961 c -0.41963,-0.24232 -0.78752,-0.35964 -1.10261,-0.35196 -0.31562,0.008 -0.55126,0.14667 -0.70706,0.41704 -0.10505,0.18188 -0.17212,0.37352 -0.20087,0.57432 l -1.21022,6.95903 5.10113,-4.06896 c 0.26694,-0.22543 0.46625,-0.45242 0.59843,-0.68091 0.20189,-0.34991 0.21623,-0.6896 0.043,-1.02003 -0.1732,-0.32996 -0.54055,-0.66605 -1.10109,-1.00882 l 0.13576,-0.26692 3.92473,2.26553 -0.14961,0.25875 c -0.2721,-0.13216 -0.50677,-0.21303 -0.70397,-0.24337 -0.19727,-0.0303 -0.43347,-0.0277 -0.7081,0.006 -0.56923,0.082 -1.18973,0.38576 -1.86092,0.91248 l -7.57892,6.03425 -0.25875,-0.14961 1.5325,-8.82545 -7.11629,5.60391 -0.27307,-0.1578 1.64111,-9.36904 c 0.15934,-0.84689 0.17523,-1.5155 0.0482,-2.0058 -0.12725,-0.49039 -0.41295,-0.86329 -0.85564,-1.11896 l -0.24492,-0.14138 0.1491,-0.25822 0,0 z"
       inkscape:connector-curvature="0"
       style="fill:#01b4ed;fill-opacity:1" />
    <path
       id="path57"
       d="m 381.96996,724.63008 10.3954,6.00199 -2.18473,3.78463 -0.21009,-0.12091 c 0.19113,-0.77262 0.30641,-1.3669 0.3443,-1.78294 0.0379,-0.416 0.021,-0.84175 -0.0522,-1.27518 -0.0923,-0.5195 -0.26697,-0.95346 -0.52621,-1.30184 -0.43654,-0.56921 -1.06471,-1.09077 -1.8855,-1.56467 l -1.92446,-1.11075 -2.68172,4.64482 0.5175,0.29921 c 0.76957,0.44419 1.57192,0.46571 2.40658,0.0646 0.42936,-0.20543 0.8367,-0.51181 1.22097,-0.9181 0.17111,-0.16859 0.3935,-0.43497 0.66657,-0.80028 l 0.24545,0.14141 -3.69983,6.40828 -0.24541,-0.14143 c 0.14298,-0.37705 0.26439,-0.74084 0.3643,-1.09074 0.0989,-0.35046 0.15627,-0.64861 0.17112,-0.89454 0.0149,-0.24642 0.003,-0.50823 -0.0359,-0.78592 -0.12097,-0.75977 -0.56823,-1.36332 -1.34291,-1.81008 l -0.40529,-0.23412 -2.52493,4.37225 1.60936,0.92886 c 0.47547,0.2746 0.92277,0.48773 1.34188,0.6399 0.41909,0.15167 0.82182,0.24439 1.20661,0.27666 0.38529,0.0328 0.77676,0.0115 1.17485,-0.0635 0.68042,-0.12299 1.31372,-0.40118 1.89937,-0.83407 0.33609,-0.24746 0.74548,-0.60814 1.22965,-1.08051 l 0.25927,0.1496 -2.32256,4.02285 -10.64081,-6.14341 0.13518,-0.26698 0.26643,0.1537 c 1.1851,0.68398 2.12171,0.42886 2.81087,-0.76486 l 3.2829,-5.68813 c 0.35046,-0.6066 0.4642,-1.13738 0.34227,-1.59335 -0.12192,-0.45598 -0.48626,-0.85919 -1.09289,-1.20912 l -0.26645,-0.1537 0.1506,-0.25979 0,0 z"
       inkscape:connector-curvature="0"
       style="fill:#01b4ed;fill-opacity:1" />
    <path
       style="fill:#0076a8;fill-opacity:1;stroke:none;stroke-width:2.09050012;stroke-linejoin:round;stroke-miterlimit:10"
       d="m 186.14844,21.068359 -65.91699,87.011721 23.27857,14.11182 z"
       transform="translate(142.36536,539.50124)"
       id="polygon3399"
       inkscape:connector-curvature="0"
       sodipodi:nodetypes="cccc" />
    <path
       style="fill:#ffffff;fill-rule:evenodd;stroke:none;stroke-width:0.69816226px;stroke-linecap:butt;stroke-linejoin:miter;stroke-opacity:1"
       d="m 273.54466,656.70912 7.29894,10.33247 42.61809,-97.77013"
       id="path4358"
       inkscape:connector-curvature="0"
       sodipodi:nodetypes="ccc" />
    <path
       sodipodi:nodetypes="ccc"
       inkscape:connector-curvature="0"
       id="path4360"
       d="m 261.26732,677.10472 -7.29896,-10.33247 -42.85973,97.52834"
       style="fill:#ffffff;fill-rule:evenodd;stroke:none;stroke-width:0.69816226px;stroke-linecap:butt;stroke-linejoin:miter;stroke-opacity:1" />
    <path
       sodipodi:nodetypes="ccc"
       inkscape:connector-curvature="0"
       id="path4362"
       d="m 276.76883,671.35643 -10.33315,7.29847 97.77647,42.61514"
       style="fill:#ffffff;fill-rule:evenodd;stroke:none;stroke-width:0.69816226px;stroke-linecap:butt;stroke-linejoin:miter;stroke-opacity:1" />
    <path
       style="fill:#ffffff;fill-rule:evenodd;stroke:none;stroke-width:0.69816226px;stroke-linecap:butt;stroke-linejoin:miter;stroke-opacity:1"
       d="m 256.37254,659.07883 10.33311,-7.29849 -97.29255,-42.61512"
       id="path4364"
       inkscape:connector-curvature="0"
       sodipodi:nodetypes="ccc" />
    <path
       id="path47"
       d="m 282.95636,661.65196 c 2.24082,8.3634 -2.72835,16.96906 -11.09153,19.20973 -8.36392,2.24069 -16.97011,-2.72815 -19.21095,-11.09081 -2.24081,-8.36341 2.72834,-16.96983 11.09153,-19.20974 8.36394,-2.24069 16.97014,2.72818 19.21095,11.09082 l 0,0 z"
       inkscape:connector-curvature="0"
       style="clip-rule:evenodd;fill:#ffffff;fill-rule:evenodd;stroke:#01b4ed;stroke-width:10.5810833;stroke-miterlimit:4;stroke-dasharray:none;stroke-opacity:1" />
    <text
       xml:space="preserve"
       style="font-style:normal;font-weight:normal;font-size:40px;line-height:125%;font-family:sans-serif;letter-spacing:0px;word-spacing:0px;fill:#cccccc;fill-opacity:1;stroke:none;stroke-width:1px;stroke-linecap:butt;stroke-linejoin:miter;stroke-opacity:1;"
       x="702.38739"
       y="-170.74191"
       id="text3384"
       sodipodi:linespacing="125%"
       transform="matrix(0.25881905,0.96592583,-0.96592583,0.25881905,0,0)"><tspan
         sodipodi:role="line"
         id="tspan3386"
         x="702.38739"
         y="-170.74191"
         style="font-style:normal;font-variant:normal;font-weight:normal;font-stretch:normal;font-size:17.50000191px;font-family:'Abyssinica SIL';-inkscape-font-specification:'Abyssinica SIL';fill:#cccccc;stroke:none;">ne</tspan></text>
    <text
       sodipodi:linespacing="125%"
       id="text3388"
       y="625.72601"
       x="74.837143"
       style="font-style:normal;font-weight:normal;font-size:40px;line-height:125%;font-family:sans-serif;letter-spacing:0px;word-spacing:0px;fill:#cccccc;fill-opacity:1;stroke:none;stroke-width:1px;stroke-linecap:butt;stroke-linejoin:miter;stroke-opacity:1;"
       xml:space="preserve"
       transform="matrix(0.96592583,-0.25881905,0.25881905,0.96592583,0,0)"><tspan
         style="font-style:normal;font-variant:normal;font-weight:normal;font-stretch:normal;font-size:17.50000191px;font-family:'Abyssinica SIL';-inkscape-font-specification:'Abyssinica SIL';fill:#cccccc;stroke:none;"
         y="625.72601"
         x="74.837143"
         id="tspan3390"
         sodipodi:role="line">nw</tspan></text>
    <text
       xml:space="preserve"
       style="font-style:normal;font-weight:normal;font-size:40px;line-height:125%;font-family:sans-serif;letter-spacing:0px;word-spacing:0px;fill:#cccccc;fill-opacity:1;stroke:none;stroke-width:1px;stroke-linecap:butt;stroke-linejoin:miter;stroke-opacity:1;"
       x="699.79449"
       y="6.8953362"
       id="text3392"
       sodipodi:linespacing="125%"
       transform="matrix(0.25881905,0.96592583,-0.96592583,0.25881905,0,0)"><tspan
         sodipodi:role="line"
         id="tspan3394"
         x="699.79449"
         y="6.8953362"
         style="font-style:normal;font-variant:normal;font-weight:normal;font-stretch:normal;font-size:17.50000191px;font-family:'Abyssinica SIL';-inkscape-font-specification:'Abyssinica SIL';fill:#cccccc;stroke:none;">sw</tspan></text>
    <text
       sodipodi:linespacing="125%"
       id="text3420"
       y="806.72601"
       x="78.528763"
       style="font-style:normal;font-weight:normal;font-size:40px;line-height:125%;font-family:sans-serif;letter-spacing:0px;word-spacing:0px;fill:#cccccc;fill-opacity:1;stroke:none;stroke-width:1px;stroke-linecap:butt;stroke-linejoin:miter;stroke-opacity:1;"
       xml:space="preserve"
       transform="matrix(0.96592583,-0.25881905,0.25881905,0.96592583,0,0)"><tspan
         style="font-style:normal;font-variant:normal;font-weight:normal;font-stretch:normal;font-size:17.50000191px;font-family:'Abyssinica SIL';-inkscape-font-specification:'Abyssinica SIL';fill:#cccccc;stroke:none;"
         y="806.72601"
         x="78.528763"
         id="tspan3422"
         sodipodi:role="line">se</tspan></text>
    <path
       style="fill:#0076a8;fill-opacity:1"
       inkscape:connector-curvature="0"
       d="m 331.98502,539.50126 3.92472,2.26551 2.72991,10.95936 2.43169,-4.21139 c 0.29614,-0.51284 0.46829,-1.01236 0.51541,-1.49806 0.0472,-0.48571 -0.0369,-0.92425 -0.25204,-1.3162 -0.11328,-0.21412 -0.24545,-0.39654 -0.39812,-0.54664 -0.15214,-0.1502 -0.38219,-0.33002 -0.6917,-0.53898 l 0.15,-0.25882 4.84135,2.7953 -0.15002,0.25879 -0.0978,-0.0564 c -0.7035,-0.40674 -1.37006,-0.49233 -1.99617,-0.2572 -0.62767,0.23465 -1.18666,0.77926 -1.67905,1.63281 l -4.03581,6.98881 -0.23005,-0.13322 -3.43336,-13.53841 -3.35241,5.80626 c -0.32538,0.56458 -0.5185,1.0549 -0.57847,1.47092 -0.06,0.41602 0.006,0.80745 0.19931,1.17375 0.16087,0.29206 0.4063,0.56154 0.73678,0.80798 0.17727,0.14553 0.44318,0.33045 0.79976,0.55492 l -0.15,0.2588 -5.09961,-2.94441 0.1491,-0.25871 c 0.53851,0.27359 1.01757,0.42676 1.43719,0.46057 0.41811,0.0333 0.79573,-0.0583 1.12874,-0.27615 0.33408,-0.21775 0.63329,-0.55486 0.89664,-1.01187 l 3.19155,-5.52653 c 0.19724,-0.34072 0.28844,-0.67322 0.27307,-0.99853 -0.0138,-0.32538 -0.12812,-0.63582 -0.34324,-0.93096 -0.21519,-0.29509 -0.52826,-0.56153 -0.93867,-0.79821 l -0.12602,-0.0727 0.14785,-0.26007 0,0 z"
       id="path4157" />
    <path
       id="path4159"
       d="m 331.98502,539.50126 3.92472,2.26551 2.72991,10.95936 2.43169,-4.21139 c 0.29614,-0.51284 0.46829,-1.01236 0.51541,-1.49806 0.0472,-0.48571 -0.0369,-0.92425 -0.25204,-1.3162 -0.11328,-0.21412 -0.24545,-0.39654 -0.39812,-0.54664 -0.15214,-0.1502 -0.38219,-0.33002 -0.6917,-0.53898 l 0.15,-0.25882 4.84135,2.7953 -0.15002,0.25879 -0.0978,-0.0564 c -0.7035,-0.40674 -1.37006,-0.49233 -1.99617,-0.2572 -0.62767,0.23465 -1.18666,0.77926 -1.67905,1.63281 l -4.03581,6.98881 -0.23005,-0.13322 -3.43336,-13.53841 -3.35241,5.80626 c -0.32538,0.56458 -0.5185,1.0549 -0.57847,1.47092 -0.06,0.41602 0.006,0.80745 0.19931,1.17375 0.16087,0.29206 0.4063,0.56154 0.73678,0.80798 0.17727,0.14553 0.44318,0.33045 0.79976,0.55492 l -0.15,0.2588 -5.09961,-2.94441 0.1491,-0.25871 c 0.53851,0.27359 1.01757,0.42676 1.43719,0.46057 0.41811,0.0333 0.79573,-0.0583 1.12874,-0.27615 0.33408,-0.21775 0.63329,-0.55486 0.89664,-1.01187 l 3.19155,-5.52653 c 0.19724,-0.34072 0.28844,-0.67322 0.27307,-0.99853 -0.0138,-0.32538 -0.12812,-0.63582 -0.34324,-0.93096 -0.21519,-0.29509 -0.52826,-0.56153 -0.93867,-0.79821 l -0.12602,-0.0727 0.14785,-0.26007 0,0 z"
       inkscape:connector-curvature="0"
       style="fill:#0076a8;fill-opacity:1" />
  </g>
</svg>
