<?xml version="1.0" encoding="UTF-8" standalone="no"?>
<!-- Created with Inkscape (http://www.inkscape.org/) -->

<svg
   xmlns:dc="http://purl.org/dc/elements/1.1/"
   xmlns:cc="http://creativecommons.org/ns#"
   xmlns:rdf="http://www.w3.org/1999/02/22-rdf-syntax-ns#"
   xmlns:svg="http://www.w3.org/2000/svg"
   xmlns="http://www.w3.org/2000/svg"
   xmlns:sodipodi="http://sodipodi.sourceforge.net/DTD/sodipodi-0.dtd"
   xmlns:inkscape="http://www.inkscape.org/namespaces/inkscape"
   width="36.124443mm"
   height="36.124454mm"
   viewBox="0 0 128 128.00004"
   id="svg4291"
   version="1.1"
   inkscape:version="0.91 r13725"
   sodipodi:docname="start_1.svg">
  <defs
     id="defs4293" />
  <sodipodi:namedview
     id="base"
     pagecolor="#ffffff"
     bordercolor="#666666"
     borderopacity="1.0"
     inkscape:pageopacity="0.0"
     inkscape:pageshadow="2"
     inkscape:zoom="4.613844"
     inkscape:cx="70.610123"
     inkscape:cy="55.140376"
     inkscape:document-units="px"
     inkscape:current-layer="layer1"
     showgrid="false"
     fit-margin-top="0"
     fit-margin-left="0"
     fit-margin-right="0"
     fit-margin-bottom="0"
     inkscape:window-width="1920"
     inkscape:window-height="1005"
     inkscape:window-x="0"
     inkscape:window-y="0"
     inkscape:window-maximized="1"
     showguides="true"
     inkscape:guide-bbox="true" />
  <metadata
     id="metadata4296">
    <rdf:RDF>
      <cc:Work
         rdf:about="">
        <dc:format>image/svg+xml</dc:format>
        <dc:type
           rdf:resource="http://purl.org/dc/dcmitype/StillImage" />
        <dc:title></dc:title>
      </cc:Work>
    </rdf:RDF>
  </metadata>
  <g
     inkscape:label="Layer 1"
     inkscape:groupmode="layer"
     id="layer1"
     transform="translate(287.14285,-94.362202)">
    <g
       id="g4172"
       transform="matrix(1.2558786,0,0,1.2558786,54.667934,-42.156086)">
      <path
         style="fill:#595757"
         inkscape:connector-curvature="0"
         id="path2373"
         d="m -174.27901,145.12533 c 0,-4.86314 -4.27956,-8.89954 -9.77491,-9.4588 -0.65653,-3.79325 -4.47409,-6.71114 -9.06976,-6.71114 l -2.45588,0 0,-2.09115 c 0,-4.32819 -4.10936,-7.85397 -9.16702,-7.85397 l -19.3553,0 c -4.57135,0 -8.3646,2.89357 -9.04544,6.63819 l -4.4984,0 c -3.50146,0 -6.41935,2.13978 -7.10019,4.98472 l -3.55009,0 c -3.62304,0 -6.8084,2.06683 -7.85397,4.98471 l -0.87537,0 c -6.12755,0 -11.11227,4.27957 -11.11227,9.53176 0,5.25219 4.98472,9.53175 11.11227,9.53175 l 23.97528,0 c 0.7781,0 1.43463,-0.53494 1.43463,-1.21578 0,-0.68084 -0.63221,-1.21579 -1.43463,-1.21579 l -23.97528,0 c -4.54703,0 -8.24302,-3.18535 -8.24302,-7.07587 0,-3.89051 3.69599,-7.07586 8.24302,-7.07586 l 9.67765,0 c 0.77811,0 1.43463,-0.53495 1.43463,-1.21579 0,-0.68084 -0.63221,-1.21578 -1.43463,-1.21578 l -5.76282,0 c 0.89968,-1.50758 2.72336,-2.52884 4.7902,-2.52884 l 4.83882,0 c 0,0 0,0 0,0 l 3.86619,0 c 0.77811,0 1.43463,-0.53494 1.43463,-1.21578 0,-0.68084 -0.63221,-1.21579 -1.43463,-1.21579 l -2.21272,0 c 0.58357,-1.48325 2.23704,-2.52883 4.13366,-2.52883 l 5.81146,0 c 2.40725,0 4.37682,1.67778 4.37682,3.76893 0,0.68084 0.63221,1.21579 1.43463,1.21579 0.7781,0 1.43463,-0.53495 1.43463,-1.21579 0,-2.96651 -2.43157,-5.44671 -5.68988,-6.0546 0.58358,-2.48021 3.13673,-4.35252 6.20051,-4.35252 l 19.35529,0 c 3.47715,0 6.32208,2.43157 6.32208,5.42241 l 0,2.09115 -6.32208,0 c -0.7781,0 -1.43463,0.53494 -1.43463,1.21578 0,0.68084 0.63221,1.21579 1.43463,1.21579 l 7.73239,0 3.8662,0 c 2.99083,0 5.49535,1.79936 6.15187,4.20661 l -2.28567,0 c -0.77811,0 -1.43463,0.53495 -1.43463,1.21579 0,0.68084 0.63221,1.21578 1.43463,1.21578 l 3.86619,0 c 0,0 0,0 0,0 0,0 0,0 0,0 4.54704,0 8.24303,3.18536 8.24303,7.07587 0,3.91483 -3.69599,7.07587 -8.24303,7.07587 l -2.45588,0 0,-0.43768 c 0,-2.50452 -2.38294,-4.54704 -5.30083,-4.54704 l -7.73239,0 c -2.91788,0 -5.30082,2.04252 -5.30082,4.54704 l 0,0.43768 -0.51063,0 c 0,0 0,0 0,0 l -1.92094,0 c 0,0 0,0 0,0 -3.47715,0 -6.32208,-2.43157 -6.32208,-5.4224 0,-0.68084 -0.63221,-1.21579 -1.43463,-1.21579 -0.7781,0 -1.43462,0.53495 -1.43462,1.21579 0,2.09115 0.97262,4.01209 2.52883,5.4224 l -2.06684,0 -5.81145,0 -3.64735,0 c -0.7781,0 -1.43463,0.53494 -1.43463,1.21578 0,0.68084 0.63221,1.21579 1.43463,1.21579 l 2.21273,0 0,22.46771 -13.08185,0 c -2.40726,0 -4.37683,-1.67779 -4.37683,-3.76894 l 0,-3.76893 8.24302,0 c 2.91789,0 5.30083,-2.04252 5.30083,-4.54704 0,-2.50452 -2.38294,-4.54703 -5.30083,-4.54703 l -0.51062,0 0,-0.43769 c 0,-2.50451 -2.38294,-4.54703 -5.30083,-4.54703 l -7.73239,0 c -2.91788,0 -5.30082,2.04252 -5.30082,4.54703 l 0,0.43769 -2.45589,0 c -2.91788,0 -5.30082,2.04251 -5.30082,4.54703 0,2.50452 2.38294,4.54704 5.30082,4.54704 l 10.18828,0 0,3.76893 c 0,3.42852 3.23399,6.2005 7.22176,6.2005 l 13.08185,0 0,14.15174 -5.34946,0 c -3.50146,0 -6.41934,2.13978 -7.10018,4.98472 l -11.79311,0 c -0.7781,0 -1.43463,0.53495 -1.43463,1.21579 0,0.68083 0.63221,1.21578 1.43463,1.21578 l 57.09326,0 c 0.7781,0 1.43463,-0.53495 1.43463,-1.21578 0,-0.68084 -0.63221,-1.21579 -1.43463,-1.21579 l -11.79312,0 c -0.65652,-2.84494 -3.59872,-4.98472 -7.10018,-4.98472 l -5.34945,0 0,-25.77464 13.08184,0 c 3.98778,0 7.22177,-2.77199 7.22177,-6.2005 l 0,-0.43769 10.18827,0 c 2.91789,0 5.30083,-2.04251 5.30083,-4.54703 0,-1.04558 -0.41337,-2.0182 -1.11852,-2.79631 4.23093,-1.45894 7.10018,-4.88745 7.10018,-8.87523 z m -83.23264,19.91456 c 0,-1.16715 1.09421,-2.09115 2.45588,-2.09115 l 3.8662,0 c 0,0 0,0 0,0 1.33737,0 2.45589,0.94831 2.45589,2.09115 0,0.68084 0.63221,1.21579 1.43462,1.21579 0.80242,0 1.43463,-0.53495 1.43463,-1.21579 0,-2.09115 -1.62915,-3.84188 -3.8662,-4.37683 l 0,-0.60789 c 0,-1.16715 1.09421,-2.09115 2.45589,-2.09115 l 7.73239,0 c 1.33736,0 2.45589,0.94831 2.45589,2.09115 l 0,0.43768 -2.45589,0 c -0.7781,0 -1.43462,0.53495 -1.43462,1.21579 0,0.68084 0.6322,1.21578 1.43462,1.21578 l 3.8662,0 c 0,0 0,0 0,0 l 1.92094,0 c 1.33736,0 2.45588,0.94832 2.45588,2.09115 0,1.14284 -1.0942,2.09116 -2.45588,2.09116 l -21.30056,0 c -1.36167,0.0486 -2.45588,-0.89968 -2.45588,-2.06684 z m 51.1116,33.65293 -27.64695,0 c 0.58358,-1.48326 2.23704,-2.52883 4.13367,-2.52883 l 6.78408,0 5.81145,0 6.78408,0 c 1.89662,0 3.52578,1.04557 4.13367,2.52883 z m -15.31889,-4.98472 0,-39.05101 2.96651,0 0,39.05101 -2.96651,0 z m 23.29444,-31.97514 c 0,2.06683 -1.96957,3.76893 -4.37683,3.76893 l -13.08184,0 0,-10.8448 4.52272,0 c -0.38905,0.63221 -0.6079,1.33736 -0.6079,2.09115 0,2.50451 2.38294,4.54703 5.30083,4.54703 l 8.24302,0 0,0.43769 z m 15.4891,-4.98472 c 0,1.16715 -1.09421,2.09115 -2.45589,2.09115 l -11.59858,0 c 0,0 0,0 -0.0243,0 -0.0243,0 0,0 -0.0243,0 l -9.65333,0 c -1.33736,0 -2.45589,-0.94831 -2.45589,-2.09115 0,-1.16716 1.09421,-2.09115 2.43157,-2.09115 l 1.94526,0 c 0,0 0,0 0,0 0,0 0,0 0,0 l 3.8662,0 c 0.7781,0 1.43462,-0.53495 1.43462,-1.21579 0,-0.68084 -0.6322,-1.21578 -1.43462,-1.21578 l -2.45589,0 0,-0.43768 c 0,-1.16716 1.09421,-2.09115 2.45589,-2.09115 l 7.73239,0 c 1.33736,0 2.45589,0.94831 2.45589,2.09115 l 0,0.60789 c -2.23705,0.53494 -3.8662,2.28567 -3.8662,4.37682 0,0.68084 0.63221,1.21579 1.43463,1.21579 0.80241,0 1.43462,-0.53495 1.43462,-1.21579 0,-1.16715 1.09421,-2.09115 2.45589,-2.09115 0,0 0,0 0,0 l 3.86619,0 c 1.36168,-0.0243 2.45589,0.89968 2.45589,2.06684 z"
         class="st92" />
      <path
         style="fill:#595757"
         inkscape:connector-curvature="0"
         id="path2459"
         d="m -222.56999,199.00892 c 0,-0.60789 -0.63221,-1.0942 -1.43463,-1.0942 l -4.79019,0 c -0.80242,0 -1.43463,0.48631 -1.43463,1.0942 l 7.65945,0 z"
         class="st92" />
      <path
         style="fill:#595757"
         inkscape:connector-curvature="0"
         id="path2461"
         d="m -243.60307,161.19801 -3.59872,0 c -0.41337,0 -0.72947,-0.34042 -0.72947,-0.72947 l 0,-0.43768 c 0,-0.41337 0.34042,-0.72947 0.72947,-0.72947 l 3.59872,0 c 0.41337,0 0.72947,0.34042 0.72947,0.72947 l 0,0.43768 c 0,0.38905 -0.34042,0.72947 -0.72947,0.72947 z"
         class="st92" />
      <path
         style="fill:#595757"
         inkscape:connector-curvature="0"
         id="path2463"
         d="m -199.27555,157.18592 -3.42852,0 c -0.34042,0 -0.6322,-0.26747 -0.6322,-0.63221 l 0,-0.26747 c 0,-0.34042 0.26747,-0.63221 0.6322,-0.63221 l 3.42852,0 c 0.34042,0 0.63221,0.26747 0.63221,0.63221 l 0,0.26747 c -0.0243,0.34042 -0.29179,0.63221 -0.63221,0.63221 z"
         class="st92" />
      <path
         style="fill:#595757"
         inkscape:connector-curvature="0"
         id="path2465"
         d="m -250.02241,143.13144 c 1.14283,0 2.06683,-0.70515 2.06683,-1.5562 0,-0.85105 -0.924,-1.5562 -2.06683,-1.5562 l -6.73545,0 c -1.02126,0.85105 -1.72642,1.92094 -1.96958,3.1124 l 8.70503,0 z"
         class="st92" />
    </g>
  </g>
</svg>
